<svg width="32" height="32" viewBox="0 0 32 32" fill="none" xmlns="http://www.w3.org/2000/svg">
<rect width="32" height="32" rx="16" fill="url(#paint0_linear_544_5660)"/>
<path d="M22.971 17.4195L23.026 17.496L23.0352 18.016L23.0474 18.0527L23.0168 18.0588L22.9832 18.0986L22.9434 18.1597L22.8884 18.1903L22.8455 18.227L22.8058 18.2699L22.7691 18.279L22.7201 18.224L22.6865 18.1659L22.6957 18.1536L22.7201 18.1506L22.7293 18.12L22.7171 18.0772L22.6834 18.0619H22.6437L22.6039 18.0802L22.5641 18.1169L22.5397 18.1567L22.5366 18.2393L22.5488 18.331V18.3769L22.5274 18.432L22.5182 18.5146L22.5336 18.5788L22.5488 18.6155V18.6461L22.5091 18.747L22.5427 18.7654L22.6528 18.7715L22.6865 18.8388L22.7079 18.8847L22.7018 18.9122L22.6223 18.9336L22.5244 18.9551L22.454 18.9489L22.3256 18.9795L22.2582 19.0254L22.2797 19.056L22.3041 19.0774L22.3164 19.1386L22.295 19.2273L22.2582 19.3129L22.2124 19.42L22.1604 19.5424L22.09 19.7259L22.0288 19.8697L22.0227 19.9737V20.0409L22.0166 20.1755L21.9585 20.249L21.9462 20.252L21.8789 20.2428L21.8545 20.2398L21.7902 20.2306L21.6893 20.2184L21.5578 20.2L21.4018 20.1786L21.2274 20.1572L21.0439 20.1327L20.8512 20.1082L20.6615 20.0838L20.4749 20.0593L20.3006 20.0379L20.1446 20.0165L20.013 19.9981L19.9121 19.9859L19.8479 19.9767L19.8234 19.9737L19.75 19.9645L19.7102 19.9155L19.6643 19.8544L19.6154 19.7932L19.5695 19.732L19.5236 19.6708L19.4777 19.6096L19.4319 19.5485L19.386 19.4873L19.3401 19.4261L19.2942 19.3649L19.2483 19.3038L19.1994 19.2426L19.1535 19.1814L19.1076 19.1202L19.0617 19.0591L19.0159 18.9979L18.97 18.9367L18.9394 18.8969L18.921 18.851L18.918 18.7287V18.7012L18.9485 18.6522L18.9638 18.6859L19.0005 18.7348L19.0617 18.7226L19.0893 18.7318L19.1107 18.9L19.1535 18.9612L19.2086 18.9856L19.3921 18.9979L19.5053 18.9765L19.7286 18.8663L19.8448 18.8266L20.169 18.8327L20.429 18.8786L20.8359 18.9061L20.9154 18.9L21.1326 18.8113L21.2672 18.7348L21.3467 18.7134L21.3987 18.6369L21.4323 18.539L21.4629 18.4748L21.5027 18.4442L21.5394 18.3892L21.57 18.3005L21.6465 18.2117L21.9493 17.9946L22.1267 17.811L22.142 17.7529L22.2368 17.6642L22.3133 17.5663L22.6712 17.2849L22.7446 17.1687L22.7874 17.0402L22.7935 17.031L22.8241 17.0249L22.867 17.0433L22.87 17.1411L22.8547 17.2329L22.8517 17.3308L22.8455 17.3828L22.8792 17.4256L22.9373 17.444L22.9618 17.4409L22.971 17.4195ZM22.9557 17.811L22.9618 17.7713L22.9526 17.7499L22.9159 17.7468L22.9006 17.7804L22.8945 17.8294L22.919 17.8324L22.9557 17.811ZM21.3987 18.5574L21.3895 18.5757L21.3651 18.5727L21.3039 18.5574L21.2855 18.5299L21.3222 18.4993L21.3375 18.4962L21.362 18.5299L21.3987 18.5574ZM20.426 18.7287L20.3617 18.7348L20.3036 18.6981L20.426 18.6492L20.4596 18.6278L20.4963 18.5849L20.5239 18.6216L20.4933 18.6798L20.4719 18.7042L20.426 18.7287ZM19.8112 18.7012L19.7959 18.7073L19.7806 18.6553V18.64L19.8203 18.6155L19.8448 18.6583L19.8112 18.7012ZM20.9368 18.8052V18.8358L20.8481 18.8266L20.8236 18.8419L20.7533 18.8327L20.6829 18.8082L20.7319 18.7685L20.8542 18.7226L20.9062 18.7623L20.9368 18.8052Z" fill="white" stroke="white" stroke-width="0.1"/>
<path d="M18.0858 17.1992L18.0582 17.2696L18.0307 17.2451L17.9634 17.1197L17.9848 17.031L17.9512 16.9056L17.9665 16.8689L18.0491 16.8536L18.0674 16.8566L18.043 16.8995L18.0888 16.9698L18.0949 17.083L18.0858 17.1992Z" fill="white" stroke="white" stroke-width="0.1"/>
<path d="M5.36453 10.4789L5.31864 10.4851L5.21159 10.534L5.19934 10.5493L5.17795 10.5768L5.17489 10.5982L5.15958 10.8246L5.10452 10.8185L5.03417 10.7695L5.01888 10.7267L4.99747 10.7114L4.94853 10.7053L4.85369 10.6839L4.74357 10.7573L4.6977 10.8827L4.68852 10.9408L4.64875 11.0601L4.66404 11.1366L4.67016 11.2314L4.67935 11.311L4.67016 11.3568L4.64875 11.3844L4.65487 11.4027L4.67323 11.4088L4.73441 11.3874L4.79559 11.4088L4.85675 11.4486L4.86287 11.4761L4.82005 11.4914L4.71606 11.5526L4.64569 11.623L4.62734 11.6903L4.5784 11.8279L4.58453 11.8585L4.60898 11.8738L4.77417 11.8585L4.92406 11.8034L5.03723 11.7423L5.07394 11.7453L5.04946 11.9013H5.05252L5.03111 11.9962L5.04029 12.0114L5.06475 12.094L5.01582 12.2439L4.96382 12.3632L4.94241 12.4213L4.89041 12.5498L4.8384 12.6997L4.80782 12.8006L4.81394 12.8373L4.80169 13.0239L4.80782 13.0759L4.74664 13.2381L4.73441 13.3176L4.70687 13.4277L4.66404 13.6541L4.60592 13.7305L4.57534 13.6449L4.50805 13.4032L4.4591 13.235L4.39486 13.027L4.28474 12.7762L4.27252 12.715L4.2511 12.6263L4.17463 12.3969L4.11039 12.2317L4.04004 12.0176L4.12874 11.9319V11.8646L4.28168 11.6994L4.27864 11.6841L4.23887 11.6413L4.24498 11.6321L4.41017 11.3293L4.52028 11.0265L4.62123 10.6013L4.69158 10.3872L4.75276 10.2434L4.78028 10.1241L4.87817 10.118L4.95158 10.1302L5.04029 10.1333L5.11064 10.0874L5.14429 9.95588L5.18405 9.93447L5.20547 9.96506L5.22688 9.92835L5.31864 9.87023L5.36453 9.83353L5.41041 9.78459L5.43488 9.76929L5.41959 9.83353L5.40736 9.8733V9.92529L5.42571 9.95588L5.45017 10.014L5.46546 10.0721L5.43182 10.1211L5.43488 10.17L5.44407 10.2128L5.47159 10.2618L5.42265 10.3505L5.37676 10.4331L5.36453 10.4789Z" fill="white" stroke="white" stroke-width="0.1"/>
<path d="M13.0697 5.88449V5.8906L13.1003 5.96707L13.1706 6.25154L13.2104 6.2852L13.2563 6.31579L13.2899 6.35861L13.3022 6.39837L13.296 6.46567L13.2991 6.54214L13.3175 6.60026L13.345 6.64309L13.3695 6.66449L13.4062 6.66756L13.449 6.67673L13.4796 6.72261L13.5744 7.04074L13.5836 7.08356L13.6233 7.09579L13.6876 7.08968L13.7549 7.12332L13.8252 7.17533L13.8925 7.27015L13.9384 7.2885L14.0791 7.27321L14.2749 7.2885L14.3666 7.33745L14.3544 7.36804L14.2871 7.40474L14.1617 7.44451L14.125 7.51181L14.1066 7.60051L14.1097 7.64945L14.1403 7.70451L14.2259 7.81157L14.2321 7.85134L14.2473 7.90639L14.2626 7.94311L14.2443 8.01652L14.1678 8.06546L14.0638 8.11746L13.8528 8.35911L13.8375 8.41111L13.8405 8.55182L13.8191 8.59158H13.7549L13.7029 8.58546L13.6998 8.6344L13.6662 8.69864L13.6478 8.75676L13.7243 8.89135L13.7365 8.96477L13.7273 9.029L13.6539 9.13912L13.6142 9.21559L13.6233 9.23394L13.6784 9.26148L13.8497 9.50924L13.9048 9.59489L13.9782 9.57042L14.0057 9.57348L14.0271 9.58572L14.0393 9.6163V9.65301L14.021 9.70807L14.1128 9.72948L14.1464 9.78454L14.2565 9.97725L14.2504 10.0323L14.1984 10.121V10.1822L14.2106 10.2342L14.2259 10.2525L14.385 10.2617L14.4553 10.2831L14.6205 10.378L14.8071 10.5278L14.9631 10.6502L15.0947 10.7511L15.2323 10.745L15.2721 10.7634L15.3088 10.794L15.3485 10.8796L15.4281 11.0723L15.4954 11.1335L15.6024 11.2864L15.7003 11.4302L15.6361 11.6229L15.5718 11.8248V12.0848V12.2225L15.7064 12.2286L15.8563 12.2347V12.3999L15.8594 12.5681V12.7578L15.9052 12.7639L15.9756 12.8036L16.0031 12.8648L16.0429 12.8985L16.0857 12.9046L16.1316 12.9352L16.1744 12.9902L16.1928 13.03L16.1806 13.0575L16.1897 13.1095L16.2203 13.1799L16.257 13.2135L16.3151 13.2533L16.2387 13.2778L16.153 13.2594L15.9695 13.1768L15.9114 13.1738L15.8318 13.2044L15.8288 13.2349L15.6361 13.1401L15.5657 13.1218H15.5412H15.4311L15.2721 13.1371L15.1803 13.1768L15.1161 13.2166L15.0885 13.2564L15.0763 13.2747L15.0274 13.3909L14.9692 13.5378L14.9081 13.6724L14.7918 13.859L14.7276 13.9446L14.5869 14.1037L14.437 14.1373L14.0883 14.1037L13.6998 14.07L13.3144 14.0333L13.0299 14.0088L13.0054 13.9997L12.724 13.7733L12.4977 13.5928L12.2193 13.3665L11.9348 13.134L11.6442 12.8985L11.4332 12.7272L11.1762 12.5069L10.9438 12.305L10.7602 12.146L10.5247 12.0053L10.3412 11.8952L10.072 11.7361L9.85788 11.6107L9.67434 11.5006L9.38986 11.3293L9.2981 11.2834L9.00444 11.2283L8.72609 11.1794L8.43856 11.1304L8.24585 11.0968L8.37126 10.9775L8.33455 10.8704L8.24279 10.8888L8.15715 10.9163L8.10514 10.745L8.16938 10.7267L8.11126 10.5034L8.04702 10.277L7.9889 10.0568L7.92773 9.83042L8.16938 9.68359L8.3529 9.57654L8.60679 9.4236L8.8515 9.27677L9.08398 9.13606L9.34093 8.98312L9.57034 8.8424L9.78141 8.78735L9.82728 8.74147L9.9221 8.55182L10.0047 8.3897L10.0078 8.35299L10.0108 8.12052L10.0231 7.84827L10.0506 7.70145L10.0995 7.57298L10.1424 7.47815L10.1454 7.38944L10.1424 7.30074L10.0965 7.16309L10.0475 7.02238L10.0536 6.88473L10.0628 6.81132L10.0934 6.69202L10.1424 6.60637L10.1974 6.55438L10.3962 6.49932L10.5155 6.46567L10.6746 6.31273L10.7694 6.22096L10.9009 6.0772L10.9958 5.97013L11.005 5.93343V5.91813L11.0875 5.89672L11.2435 5.76825L11.3323 5.64589L11.3628 5.63672L11.4424 5.67649L11.5005 5.68871L11.6351 5.64283L11.7146 5.66425L11.7819 5.69484L11.8186 5.69789L11.9991 5.77436L12.0419 5.78354L12.1367 5.79271L12.2744 5.79578L12.3631 5.74683L12.4243 5.69789L12.4701 5.70095L12.513 5.71319L12.5466 5.73154L12.5772 5.76825L12.5925 5.81719L12.5864 5.97931L12.6017 6.02213L12.6231 6.05272L12.6567 6.05884L12.6934 6.02519L12.7577 5.9732L12.8403 5.91813L12.8984 5.86613L12.9351 5.84778L12.9871 5.85083L13.0422 5.86001L13.0697 5.88449Z" fill="white" stroke="white" stroke-width="0.1"/>
<path d="M13.1158 3.14682L13.1341 3.1713L13.2749 3.40071L13.336 3.46801L13.3727 3.52613L13.3972 3.59036L13.44 3.63318L13.4951 3.65765L13.5624 3.71883L13.6083 3.76777L13.6847 3.86566L13.7673 3.90236L14.064 3.97272L14.2292 4.00636L14.2782 4.01554L14.4036 3.9666L14.5535 3.97272L14.6085 3.97578L14.8043 3.77083L14.8624 3.70354L14.9786 3.66989L15.0429 3.59036L15.1499 3.49247L15.2784 3.40071L15.3977 3.31812L15.4895 3.26917L15.6547 3.15294L15.7556 3.11318H15.8443L15.9789 3.25082L16.0921 3.37623L16.1257 3.4313L16.0707 3.48023L15.9667 3.52613L15.9483 3.55977L15.9422 3.6026L15.9452 3.64542L15.9605 3.67907L16.089 3.75859L16.1043 3.80142V3.8473L16.089 3.87483L16.0615 3.89013L15.9728 3.91154L15.8963 3.93601L15.8688 3.96048L15.8443 3.99107L15.8474 4.02471L15.8718 4.06143L16.0278 4.16543L16.0462 4.20519L16.0768 4.25719L16.1135 4.28778L16.1777 4.29696L16.2083 4.31837L16.3582 4.51108L16.3949 4.52331L16.5723 4.48049L16.5968 4.48354L16.5998 4.52943L16.6274 4.80167L16.6488 4.94237L16.6794 5.07696L16.7283 5.19933L16.7834 5.31555L16.8598 5.38897L17.0311 5.47462L17.1137 5.49909L17.334 5.51744L17.5511 5.55721L17.6796 5.59697L17.7194 5.6245L17.753 5.66733L17.8601 5.87227L18.0283 6.01604L18.3679 6.23321L18.533 6.30663L19.0867 6.44428L19.4538 6.4351L20.4693 6.17204L20.8058 6.10781H20.9342L20.8578 6.15981L20.7293 6.1904L20.8058 6.2271L20.9251 6.23321L20.9801 6.2271L21.0199 6.19346L21.026 6.13839L21.0199 6.08333L20.9648 5.83863L20.9312 5.66427L21.1698 5.67651L21.2615 5.65509L21.3992 5.59697L21.5032 5.56027L21.5552 5.55415L21.6072 5.52662L21.647 5.49297L21.7357 5.25438L21.7785 5.1932L21.9284 5.05861L22.0569 4.97296L22.1915 4.89649L22.3597 4.8445L22.586 4.85061L22.7665 4.86896H22.8705L22.9195 4.87508L22.9562 4.8659L22.9776 4.85061L23.002 4.74661L23.0387 4.71296L23.103 4.68238H23.1917L23.2988 4.67625L23.3875 4.68238L23.5006 4.72213L23.6475 4.7252L23.7453 4.71908L23.8035 4.75885L23.8432 4.81084L23.8646 4.85672L23.8677 4.91791V4.96379L23.883 4.98214L23.9442 5.00967L24.0268 5.03108L24.1889 5.05556L24.3418 5.10449L24.4214 5.13814L24.5315 5.19015L24.663 5.31555L24.712 5.33697L24.7701 5.34921L24.8129 5.34615L24.9108 5.29109L24.9964 5.33085L25.0393 5.32473L25.1371 5.29415L25.2411 5.33085L25.5011 5.4685L25.5287 5.46545L25.5531 5.48074L25.5746 5.51133L25.5899 5.55109L25.6082 5.67038L25.6847 5.75603L25.7764 5.83557L25.8835 5.87839L26.1068 5.98239L26.2047 6.06804L26.3026 6.21181L26.4249 6.3984L26.4433 6.41675L26.7583 6.41063H27.1132L27.156 6.48404L27.1468 6.63087L27.1591 6.78382L27.1896 6.88782V6.9857L27.1652 7.03465L27.1438 7.0897L27.1376 7.11417L27.1835 7.14782L27.2233 7.22735L27.2294 7.33747L27.211 7.39559L27.2141 7.44453L27.2355 7.48735L27.2539 7.55771L27.2508 7.60053L27.2233 7.64336L27.2049 7.69535L27.1835 7.76265L27.1743 7.81465L27.1315 7.83912L27.0979 7.85747L27.104 7.92172L27.1223 7.97677L27.1438 8.04101L27.1223 8.08689L27.107 8.13889L27.0765 8.22148L27.0856 8.29184L27.052 8.34995L27.0092 8.40196L26.9816 8.44172L26.9755 8.49984L26.9449 8.52125L26.8837 8.57019L26.847 8.60384L26.792 8.61301L26.7798 8.64055L26.7889 8.66808L26.8103 8.68643L26.847 8.74455L26.9205 8.84549L26.7094 8.85773L26.6482 8.94949L26.5748 9.07797L26.6115 9.33797L26.5748 9.47256L26.5962 9.54903L26.6513 9.60103L26.7216 9.62856L26.8532 9.63162L26.9388 9.65303L26.948 9.68668L26.899 9.73562L26.8195 9.83044L26.7767 9.87021L26.6421 10.0599V10.1394L26.6543 10.2036L26.7125 10.4086L26.7706 10.6074L26.8715 10.9622L26.8685 11.0448L26.8379 11.2283L26.8348 11.3385L26.8501 11.4822L26.8379 11.5557L26.8623 11.7208L26.8899 11.7331L27.1101 11.7637L27.312 11.7942L27.5812 11.834L27.6638 11.9319L27.7158 12.1429L27.7127 12.302L27.6882 12.3815L27.4955 12.614L27.2997 12.8465L27.104 13.079L26.9021 13.3206L26.8807 13.3451L27.0459 13.5378L27.1468 13.6571L27.2906 13.8253L27.3089 13.8651V13.9293L27.4558 14.1832L27.5078 14.3147L27.5536 14.3912L27.6699 14.5105L27.7831 14.6298L27.9054 14.6849L27.988 14.6971L28.1776 14.7583L28.248 14.8072L28.3612 14.9326L28.4927 14.9143H28.5203L28.5264 14.9235L28.5294 14.9632L28.5111 15.1559L28.5478 15.3517L28.5722 15.6454L28.5631 15.6973L28.5325 15.783V15.8381L28.5233 15.8717L28.5325 15.887L28.5753 15.9054L28.664 15.9145L28.8812 15.8809L28.9057 15.8901L28.9577 15.9237L28.9974 15.9788L29.0005 16.0032L28.9454 16.0491L28.9363 16.1256L28.9515 16.2388L28.9454 16.2541L28.8965 16.2785L28.8812 16.4437L28.872 16.459L28.817 16.4743L28.5539 16.4621L28.5233 16.4682L28.4254 16.511L28.2572 16.5416L28.2113 16.56L28.1501 16.6089L28.1042 16.6701L28.0951 16.7251L28.0859 16.7374L27.988 16.7251L27.9574 16.7741L27.7678 16.8475L27.7433 16.8628L27.7158 16.9209L27.6913 17.083L27.6699 17.2268L27.6546 17.2482L27.5965 17.2971L27.5903 17.3124L27.5995 17.3675L27.572 17.4684L27.5506 17.7499L27.5261 17.8294L27.4802 17.8355L27.4435 17.8753L27.3762 17.9242L27.2325 17.8875L27.1162 17.8477L26.7339 17.756L26.691 17.7101L26.6666 17.6306L26.5993 17.6091L26.5045 17.7284L26.1833 17.6611L26.0732 17.6826L26.0059 17.6458L25.8315 17.6428L25.6938 17.5694L25.4981 17.6214L25.3421 17.6306L25.128 17.5021L24.8985 17.4654L24.712 17.4776L24.6171 17.4684L24.4611 17.4226L24.3877 17.3736L24.2684 17.4103L24.2134 17.343L23.8708 17.2788L23.8065 17.1564L23.7576 17.0433L23.7545 16.927L23.6719 16.7251L23.6444 16.4315L23.6138 16.3152L23.5679 16.2143L23.5068 16.1287L23.4242 16.0369L23.3508 16.0002L23.0326 15.9298L22.9715 15.939L22.8277 15.9849L22.6747 16.0858L22.4239 16.1439L22.375 16.1868L22.3107 16.2847L22.2282 16.3428L22.118 16.3275L21.9987 16.3856L21.7754 16.5477L21.6592 16.5967L21.5613 16.5936L21.4573 16.5171L21.2218 16.4131L21.0688 16.3795L20.8578 16.4039L20.7568 16.3856L20.5856 16.2663L20.5397 16.1776L20.4418 16.1195L20.1328 15.9879L19.882 15.8136L19.8361 15.7463L19.8055 15.6484L19.6954 15.5291L19.4507 15.4312L19.3131 15.3272L19.1509 15.3028L19.001 15.3058L18.9338 15.2875L18.8726 15.2446L18.6676 15.0305L18.6646 14.9449L18.5361 14.7338L18.5055 14.6604L18.478 14.4524L18.4413 14.3973L18.3098 14.3117L18.2883 14.2566L18.3159 14.1832V14.1251L18.2486 14.0731L18.1446 14.0456L18.1201 13.9813L18.1385 13.8559L18.1231 13.7764L18.0314 13.651L17.8968 13.5225L17.7622 13.3329L17.7102 13.2839L17.6766 13.1585L17.6276 13.0086L17.5511 12.9964L17.1841 13.1738L17.077 13.0728L16.7558 12.8985L16.7344 12.871L16.713 12.8312L16.7528 12.8067L16.7925 12.7975L16.8721 12.8281L16.921 12.7914L16.9027 12.7333L16.8231 12.6966L16.713 12.6997L16.7436 12.7547L16.6396 12.8067L16.6182 12.8771L16.6335 12.9627L16.6427 13.082L16.5998 13.1401L16.5662 13.1677L16.4285 13.1738L16.3643 13.2258L16.3215 13.238L16.2634 13.1983L16.2267 13.1646L16.1961 13.0943L16.1869 13.0453L16.1991 13.0178L16.1838 12.978L16.1379 12.923L16.0921 12.8924L16.0462 12.8862L16.0095 12.8526L15.9789 12.7914L15.9085 12.7517L15.8657 12.7425V12.5528V12.3877V12.2225L15.7158 12.2164L15.5812 12.2102V12.0726V11.8126L15.6455 11.6107L15.7097 11.418L15.6118 11.2742L15.5048 11.1213L15.4375 11.0571L15.3579 10.8643L15.3182 10.7787L15.2815 10.7481L15.2417 10.7298L15.101 10.7359L14.9695 10.6319L14.8165 10.5095L14.6269 10.3627L14.4617 10.2648L14.3944 10.2434L14.2353 10.2373L14.217 10.2189L14.2047 10.1669V10.1088L14.2568 10.0201L14.2598 9.96504L14.1527 9.77539L14.1191 9.72033L14.0273 9.69892L14.0457 9.64386V9.60714L14.0334 9.57962L14.012 9.56433H13.9845L13.9111 9.58574L13.856 9.50009L13.6847 9.25538L13.6297 9.22479L13.6205 9.20643L13.6633 9.12996L13.7337 9.01679L13.7459 8.95255L13.7337 8.88219L13.6572 8.7476L13.6756 8.68948L13.7092 8.62219L13.7123 8.57326L13.7643 8.57937H13.8285L13.8499 8.5396V8.3989L13.8652 8.34689L14.0732 8.1083L14.1772 8.05324L14.2568 8.0043L14.2751 7.93089L14.2598 7.89419L14.2445 7.83912L14.2384 7.79936L14.1527 7.6923L14.1222 7.63724L14.1191 7.5883L14.1405 7.49959L14.1772 7.43229L14.2996 7.39253L14.3699 7.35888L14.3791 7.32829L14.2873 7.27935L14.0946 7.26406L13.9539 7.27935L13.908 7.26406L13.8407 7.16617L13.7704 7.11417L13.7031 7.08053L13.6389 7.08664L13.5991 7.0744L13.5899 7.03158L13.4951 6.71346L13.4645 6.67064L13.4217 6.6584L13.385 6.65534L13.3605 6.63393L13.333 6.59111L13.3146 6.53299V6.45652L13.3177 6.39228L13.3054 6.34945L13.2718 6.30663L13.2259 6.27604L13.1862 6.23934L13.1158 5.95487L13.0883 5.87839V5.86921V5.85392L13.0821 5.78968L13.1158 5.73463L13.1127 5.71321L13.0454 5.64286L12.9506 5.57251L12.9261 5.56027V5.4838L12.9292 5.42568L12.92 5.37367L12.9017 5.34309V5.31862L12.9414 5.26356L12.917 5.22685L12.7763 5.13508L12.7243 5.0892L12.6264 5.08003L12.6172 5.04943L12.6325 4.9852L12.6661 4.90873L12.7181 4.83226L12.7334 4.79249L12.7548 4.72213L12.761 4.6732L12.8191 4.6059V4.58755L12.8038 4.56308L12.7579 4.54779L12.709 4.54166L12.6906 4.52943L12.6845 4.49272L12.6906 4.34284L12.6753 4.25108L12.657 4.18683L12.6692 4.03695L12.6355 4.00636L12.5835 3.92684L12.5621 3.85954L12.5744 3.83506L12.5866 3.79225L12.5927 3.73413L12.5897 3.69436L12.5407 3.65459L12.504 3.61177L12.5009 3.56588L12.4857 3.51083L12.4642 3.46494L12.4551 3.43435L12.4734 3.416L12.5438 3.40376L12.6447 3.41294H12.7273L12.7732 3.38541L12.8313 3.11318L12.8833 3.04282L12.9445 3L13.0638 3.09788L13.1127 3.13153L13.1158 3.14682ZM22.8766 16.2082L22.7971 16.3244L22.6778 16.4192L22.6258 16.3887H22.586L22.5004 16.4254L22.4392 16.4315L22.326 16.4957L22.222 16.5294L22.1517 16.5263L22.1272 16.5202L22.1119 16.4743V16.456L22.1548 16.4651L22.3138 16.407L22.5126 16.3091L22.531 16.2663L22.5004 16.1959L22.5096 16.1807L22.638 16.2174L22.7818 16.147L22.9011 16.1287L22.9562 16.1776L22.8766 16.2082Z" fill="white" stroke="white" stroke-width="0.1"/>
<path d="M8.2458 11.0968L8.11733 11.2161L8.08979 11.2283L7.92462 11.2773L7.58509 11.3782L7.35872 11.4425L7.06814 11.5281L6.82648 11.5985L6.5879 11.6688L6.36765 11.7331L6.49308 11.8707L6.68579 12.0787L6.81425 12.2164L6.9672 12.3968L7.10179 12.5528L7.24554 12.7211L7.14462 12.7792L6.97942 12.874L6.96107 12.8893L6.94884 12.9077L6.8785 13.0728L6.82648 13.2044L6.80813 13.2227L6.57565 13.2686L6.34013 13.3176L6.19329 13.3481L6.15048 13.3818L6.0526 13.547L5.95471 13.7121L5.78954 13.8498L5.606 14.0027L5.56012 14.0119L5.42553 13.9874L5.19916 13.9477L4.97893 13.911L4.82905 13.8834L4.64551 13.8529L4.67305 13.7244L4.66386 13.654L4.70669 13.4277L4.73423 13.3176L4.74646 13.238L4.80764 13.0759L4.80151 13.0239L4.81376 12.8373L4.80764 12.8006L4.83822 12.6997L4.89023 12.5498L4.94223 12.4213L4.96364 12.3632L5.01564 12.2439L5.06457 12.094L5.04011 12.0114L5.03093 11.9961L5.05234 11.9013H5.04928L5.07376 11.7453L5.08599 11.6627L5.11659 11.5526L5.16858 11.4608L5.1441 11.2375L5.14717 11.1182L5.17777 10.9836L5.1594 10.8246L5.1747 10.5982L5.17777 10.5768L5.19916 10.5493L5.21141 10.534L5.31846 10.485L5.36435 10.4789L5.45611 10.5003L5.50811 10.5493L5.59683 10.6839L5.73446 10.7236L5.78954 10.7603L5.86601 10.8338L5.95777 10.8582L6.24837 10.9041L6.48083 10.7542L6.6766 10.6258L6.89989 10.482L7.05283 10.3841L7.30979 10.2159L7.48108 10.1088L7.70437 9.9681L7.92768 9.83044L7.98885 10.0568L8.04697 10.277L8.11121 10.5034L8.16933 10.7267L8.10509 10.745L8.1571 10.9163L8.24274 10.8888L8.3345 10.8705L8.37121 10.9775L8.2458 11.0968Z" fill="white" stroke="white" stroke-width="0.1"/>
<path d="M15.8289 13.235L15.8259 13.2717L15.8534 13.3787L15.9146 13.498L15.9666 13.5928L15.9727 13.6387L15.9268 13.6326L15.8901 13.6143L15.8228 13.5959L15.6913 13.7244L15.6118 13.7947L15.6087 13.8192L15.7127 13.8467H15.7892L15.8442 13.8284L15.8901 13.859L15.9207 13.9385L15.9329 14.0027L16.0033 14.2291L16.0614 14.3056L16.1348 14.4402L16.1624 14.5105L16.1776 14.5686L16.2235 14.6543L16.0737 14.6573L15.887 14.6604L15.7341 14.6634L15.5628 14.6665L15.4863 14.5747L15.4619 14.4738L15.4343 14.3698L15.3579 14.223L15.104 14.1863L14.9694 14.1679L14.7492 14.1404L14.584 14.119L14.7247 13.9599L14.7889 13.8743L14.9052 13.6877L14.9663 13.5561L15.0244 13.4093L15.0734 13.2931L15.0826 13.2717L15.1132 13.2319L15.1774 13.1921L15.2692 13.1554L15.4282 13.1401H15.5383L15.5628 13.1432L15.6332 13.1616L15.8289 13.235ZM16.0828 13.5867L16.0339 13.6081L16.0002 13.599L15.9696 13.547L15.9176 13.4154L15.9452 13.3665V13.3451L15.9513 13.3298L15.9666 13.3206L15.9849 13.2594L16.0063 13.2411L16.0431 13.2839L16.1471 13.4338V13.495L16.1409 13.5194L16.0828 13.5867Z" fill="white" stroke="white" stroke-width="0.1"/>
<path d="M5.43488 9.76928L5.4104 9.78458L5.36453 9.83352L5.31864 9.87022L5.22687 9.92834L5.20546 9.96505L5.18405 9.93446L5.14428 9.95587L5.11064 10.0874L5.04029 10.1333L4.95157 10.1302L4.87816 10.118L4.78027 10.1241L4.82004 10.0476L4.86287 9.9467L4.90264 9.80904L4.97605 9.69587L5.12593 9.31045L5.21158 9.15139L5.24523 8.92809L5.37676 8.73233L5.4777 8.67727L5.52664 8.61915V8.5335L5.67652 8.53655L5.77134 8.53044L5.79888 8.48456L5.87535 8.50597L5.91818 8.55185L5.87841 8.6008L5.82642 8.65585L5.82946 8.66809L5.86923 8.67421L5.93653 8.7048L5.97936 8.73844L6.04971 8.95868L6.00382 9.04739L5.9396 9.12692L5.909 9.13304L5.85088 9.1728L5.80194 9.22786L5.78359 9.26151L5.78971 9.29516L5.857 9.33492L5.86006 9.35021L5.84477 9.36245L5.78971 9.35634L5.71629 9.35021H5.67348L5.62452 9.35939L5.56334 9.40833L5.53276 9.43892L5.51747 9.46034L5.49606 9.52763L5.52053 9.57351L5.56947 9.59798L5.57559 9.61328L5.5664 9.6347L5.51747 9.66528L5.48383 9.69893L5.47158 9.73563L5.43488 9.76928Z" fill="white" stroke="white" stroke-width="0.1"/>
<path d="M22.971 17.4195L22.9557 17.4409L22.9313 17.4439L22.8731 17.4256L22.8395 17.3828L22.8456 17.3307L22.8487 17.2329L22.8639 17.1411L22.8609 17.0432L22.8181 17.0249L22.7875 17.031L22.8609 16.8933L22.8884 16.8719L22.916 16.8811L22.9832 16.8658L23.0169 16.7924L23.0444 16.7526L23.075 16.7587L23.0903 16.7802L23.0811 16.8933V16.9882L23.0444 17.2757L23.0077 17.3246L22.9894 17.3644L22.971 17.4195ZM22.9557 17.811L22.919 17.8355L22.8945 17.8324L22.9007 17.7835L22.916 17.7498L22.9527 17.7529L22.9618 17.7743L22.9557 17.811ZM20.2119 25.6662L20.1599 25.5499L20.1079 25.4337L20.0559 25.3175L20.0039 25.2012L19.9672 25.1186L19.906 25.0911L19.8693 25.0024L19.8326 24.9137L19.7959 24.825L19.7592 24.7363L19.7225 24.6476L19.6827 24.5588L19.646 24.4701L19.6093 24.3814L19.5726 24.2927L19.5329 24.204L19.4961 24.1153L19.4594 24.0266L19.4227 23.9379L19.386 23.8492L19.3462 23.7605L19.3004 23.6534L19.2637 23.5647L19.386 23.5219L19.5329 23.4699L19.6797 23.4179L19.8265 23.3659L19.9733 23.3139L20.1202 23.2619L20.267 23.2099L20.4138 23.1579L20.5606 23.1059L20.7074 23.0539L20.8543 23.0019L21.0011 22.9499L21.1479 22.8979L21.2947 22.8459L21.4416 22.7939L21.5884 22.7419L21.7352 22.6899L21.827 22.6562L21.8637 22.5339L21.8943 22.4329L21.9249 22.332L21.9555 22.2311L21.9861 22.1301L22.0167 22.0292L22.0472 21.9282L22.0778 21.8273L22.1084 21.7263L22.139 21.6254L22.1696 21.5245L22.2002 21.4235L22.2308 21.3226L22.2614 21.2216L22.2919 21.1207L22.3225 21.0197L22.3531 20.9188L22.3807 20.824L22.3256 20.7353L22.2522 20.6129L22.1757 20.4875L22.1054 20.3682L22.0534 20.2826L21.9891 20.1786L21.9952 20.044V19.9767L22.0014 19.8727L22.0625 19.7289L22.1329 19.5454L22.1849 19.423L22.2308 19.316L22.2675 19.2303L22.2889 19.1416L22.2766 19.0804L22.2522 19.059L22.2308 19.0284L22.2981 18.9825L22.4265 18.952L22.4969 18.9581L22.5948 18.9367L22.6743 18.9152L22.6804 18.8877L22.659 18.8418L22.6254 18.7745L22.5152 18.7684L22.4816 18.7501L22.5214 18.6491V18.6185L22.5061 18.5818L22.4908 18.5176L22.4999 18.435L22.5214 18.3799V18.3341L22.5091 18.2423L22.5122 18.1597L22.5367 18.1199L22.5764 18.0832L22.6162 18.0649H22.6559L22.6896 18.0802L22.7018 18.123L22.6926 18.1536L22.6682 18.1566L22.659 18.1689L22.6926 18.227L22.7416 18.2821L22.7783 18.2729L22.8181 18.2301L22.8609 18.1933L22.916 18.1628L22.9557 18.1016L22.9894 18.0618L23.02 18.0557L23.1087 18.3035L23.2371 18.5359L23.3503 18.6644L23.4696 18.8357L23.6501 18.9948L23.7327 19.0498L24.0691 19.16L24.2527 19.2028L24.5066 19.2425L24.6809 19.3282L24.739 19.3343L24.8308 19.3098L24.8981 19.3129L25.0663 19.4291L25.1153 19.5392L25.1856 19.5974L25.2468 19.6891L25.2866 19.787L25.4273 19.9338L25.5282 20.099L25.6292 20.2214L25.7209 20.2979L25.8586 20.3284L25.9687 20.3621L25.9809 20.4447L25.9687 20.5517L25.9473 20.6313L25.8463 20.7842L25.8219 20.879L25.7056 21.035L25.5802 21.295L25.5221 21.3532L25.3202 21.4878L25.1703 21.6499L24.9929 21.9282L24.8583 22.2035L24.8063 22.2922L24.6993 22.3106L24.6289 22.3014L24.58 22.2769L24.5983 22.2005L24.6106 22.1179L24.5463 22.1271L24.4882 22.1454L24.3536 22.3534L24.2802 22.4452L24.2649 22.5614L24.2282 22.7082L24.1762 22.8459L24.1517 22.9591V23.0233L24.1915 23.1824L24.1946 23.3445L24.216 23.4424L24.2343 23.5586L24.1701 23.5953L24.115 23.6137L23.9009 23.6259L23.6837 23.6626L23.4941 23.7299L23.3809 23.7972L23.2341 23.9471L23.1454 24.3264L23.0016 24.4854L22.9037 24.5191L22.6712 24.5344L22.3409 24.5772L22.2247 24.617L22.0319 24.8464L22.0167 24.9198L22.0534 24.9718L22.0656 25.0299L22.0472 25.085L21.9585 25.2318L21.8637 25.3389L21.6129 25.4062L21.5211 25.3664L21.4355 25.345L21.2733 25.3419L21.0072 25.3664L20.9093 25.4459L20.7564 25.501L20.6157 25.5866L20.3465 25.6203L20.2119 25.6662ZM25.051 22.4543L24.996 22.4666L24.9807 22.4605V22.3442L25.1061 22.2005L25.1887 22.0322L25.2468 22.1821L25.1459 22.2647L25.0908 22.4085L25.051 22.4543Z" fill="white" stroke="white" stroke-width="0.1"/>
<path d="M4.12847 11.9319L4.03977 12.0176L4.01223 11.935L4 11.9044L4.16213 11.7423L4.2386 11.6413L4.27837 11.6841V11.6994L4.12847 11.8616V11.9319ZM5.14401 11.2376L5.16849 11.4578L5.11649 11.5526L5.08589 11.6627L5.07367 11.7453L5.03696 11.7423L4.92378 11.8034L4.7739 11.8616L4.60871 11.8769L4.58425 11.8585L4.57813 11.831L4.62706 11.6903L4.64542 11.623L4.71578 11.5526L4.81671 11.4914L4.85954 11.4761L4.85342 11.4486L4.79225 11.4088L4.72801 11.3874L4.66683 11.4088L4.64848 11.4027L4.64237 11.3844L4.66377 11.3599L4.67295 11.314L4.66377 11.2345L4.65766 11.1397L4.64542 11.0663L4.68212 10.9439L4.69131 10.8858L4.7372 10.7634L4.84731 10.687L4.94214 10.7084L4.99107 10.7145L5.01248 10.7298L5.02473 10.7726L5.09508 10.8215L5.1532 10.8277L5.17155 10.9867L5.14095 11.1213L5.14401 11.2376Z" fill="white" stroke="white" stroke-width="0.1"/>
<path d="M18.6524 18.4014L18.5759 18.4228L18.5025 18.4412H18.4413L18.3954 18.432L18.3618 18.4136L18.2976 18.3341L18.2547 18.2301L18.2823 18.175L18.2914 18.1383L18.2333 17.8661L18.2119 17.655L18.2211 17.6122L18.2547 17.5633L18.3098 17.4532L18.3404 17.3492L18.426 17.1044L18.5147 17.0096L18.6493 16.9423L18.7564 17.0769L18.8879 17.1809L18.9154 17.2941L18.8757 17.3889L18.839 17.5388L18.8604 17.6061L18.8696 17.6642L18.9063 17.7652L18.9399 17.8936L18.946 17.9823L18.9277 18.0649L18.8818 18.1353L18.79 18.3463L18.7625 18.3678L18.6524 18.4014Z" fill="white" stroke="white" stroke-width="0.1"/>
<path d="M14.5867 14.1037L14.7519 14.1251L14.9721 14.1526L15.1067 14.171L15.3606 14.2077L15.4371 14.3545L15.4646 14.4585L15.489 14.5594L15.5655 14.6512L15.7368 14.6482L15.8898 14.6451L16.0763 14.642L16.2262 14.639L16.2752 14.7307L16.2966 14.8225L16.3853 15.0366L16.5107 15.2049L16.5413 15.266L16.5627 15.3578L16.5413 15.3915L16.5321 15.4312L16.627 15.523L16.7829 15.5995L16.8441 15.6178L16.9114 15.6515L16.8594 15.7035L16.9512 15.8258L17.0582 15.9512L17.1714 15.9788L17.3244 16.1653L17.5568 16.2877L17.6976 16.4468L17.6853 16.4498L17.6455 16.4345L17.5935 16.4131L17.5783 16.4315L17.5813 16.4988L17.5935 16.5783L17.6639 16.6456L17.7281 16.6945L17.7526 16.7863L17.7037 16.9851H17.6853L17.6517 16.9668L17.615 16.9637L17.5966 16.976L17.6394 17.1167L17.6822 17.2268L17.7343 17.3124L17.7771 17.4378L17.8138 17.4929L17.9637 17.6275L18.0095 17.7376L18.0524 17.9456L18.1472 18.0618L18.1992 18.1506L18.2665 18.227L18.3093 18.331L18.3705 18.4106L18.4042 18.4289L18.4531 18.4381H18.5143L18.5877 18.4167L18.6642 18.3983L18.7253 18.4381L18.7865 18.432L18.7926 18.4687L18.7498 18.5207L18.6978 18.6492L18.7712 18.6706L18.8416 18.6797L18.8905 18.7012H18.918V18.7287L18.9211 18.851L18.9395 18.8969L18.97 18.9367L19.0159 18.9979L19.0618 19.059L19.1077 19.1202L19.1536 19.1814L19.1995 19.2426L19.2484 19.3037L19.2943 19.3649L19.3402 19.4261L19.386 19.4873L19.4319 19.5485L19.4778 19.6096L19.5237 19.6708L19.5696 19.732L19.6155 19.7932L19.6644 19.8543L19.7103 19.9155L19.75 19.9645L19.8235 19.9736L19.8479 19.9767L19.9122 19.9859L20.0131 19.9981L20.1447 20.0165L20.3006 20.0379L20.475 20.0593L20.6616 20.0838L20.8512 20.1082L21.044 20.1327L21.2275 20.1572L21.4018 20.1786L21.5578 20.2L21.6894 20.2183L21.7903 20.2306L21.8545 20.2398L21.879 20.2428L21.9463 20.252L21.9586 20.2489L22.0167 20.1755L22.0809 20.2795L22.1329 20.3652L22.2033 20.4845L22.2797 20.6099L22.3531 20.7322L22.4082 20.8209L22.3807 20.9158L22.3501 21.0167L22.3195 21.1177L22.2889 21.2186L22.2583 21.3195L22.2277 21.4205L22.1971 21.5214L22.1666 21.6224L22.136 21.7233L22.1054 21.8243L22.0748 21.9252L22.0442 22.0261L22.0136 22.1271L21.983 22.228L21.9524 22.329L21.9219 22.4299L21.8913 22.5308L21.8545 22.6532L21.7628 22.6869L21.616 22.7389L21.4691 22.7909L21.3223 22.8429L21.1755 22.8949L21.0286 22.9469L20.8818 22.9989L20.735 23.0509L20.5882 23.1029L20.4414 23.1549L20.2945 23.2069L20.1477 23.2589L20.0009 23.3109L19.8541 23.3629L19.7072 23.4149L19.5604 23.4669L19.4136 23.5189L19.2912 23.5617L19.0893 23.5892L18.8936 23.6168L18.6733 23.6473L18.4072 23.684L18.1992 23.7146L17.8964 23.7575L17.6241 23.7972L17.3703 23.8339L17.1164 23.8706L16.8992 23.9012L16.7707 23.9379L16.6178 24.0144L16.3853 24.1337L16.1467 24.2561L16.0243 24.3203L15.8959 24.4824L15.8316 24.565L15.7123 24.7118L15.6236 24.8219L15.5166 24.9535L15.4707 25.0728L15.4003 25.2563L15.3392 25.3022L15.2382 25.3603L15.1465 25.4031L15.0027 25.397L14.9201 25.2838L14.8344 25.1645L14.7916 25.1156L14.7519 25.1125L14.6081 25.1278L14.4337 25.1462L14.2288 25.1278L13.9902 25.1064L13.7669 25.085L13.6568 25.0697L13.51 24.9932L13.4733 24.9779L13.4335 24.9749L13.2591 24.9718L13.0878 24.9688L12.9165 24.9932L12.7514 24.9841L12.5801 24.9994L12.5189 25.0299L12.4516 25.0269L12.4088 25.0514L12.3721 25.0636L12.3292 25.0422L12.2772 25.0483L12.1977 25.0299L12.1457 24.981L12.0968 24.9351L12.0478 24.9106L11.9928 24.8954H11.9438L11.8826 24.9229L11.8459 24.9504L11.7511 25.0361L11.7481 25.0667L11.7909 25.1187L11.7786 25.1431L11.7236 25.1737L11.7052 25.2563L11.6961 25.3022L11.6869 25.4092L11.7114 25.4949L11.745 25.5255V25.5622L11.7266 25.6356L11.6746 25.657L11.6379 25.7274L11.6135 25.761L11.5737 25.7977L11.4146 25.9201L11.4055 25.8497L11.3535 25.7457L11.3504 25.6723L11.3259 25.5989L11.2831 25.5408L11.2005 25.4796L11.1944 25.397L11.1363 25.3175L11.0568 25.2532L11.0139 25.1339L10.9803 24.9749L10.7723 24.7638L10.5123 24.5711L10.4327 24.461L10.3043 24.2377L10.24 24.0603L10.0657 23.8553L10.0596 23.7758L10.0351 23.681L9.99533 23.5739L9.97086 23.4913L9.7965 23.1212L9.74144 23.0631L9.69249 22.9805L9.68026 22.9163L9.66497 22.8826L9.54261 22.8214L9.42637 22.6654L9.08072 22.4177L8.91248 22.3932L8.77789 22.3045L8.68001 22.1883L8.57602 21.9894L8.39247 21.7723L8.23649 21.4633L8.28542 21.3501L8.28236 21.2706L8.23342 21.136L8.18141 21.032L8.1447 20.9341L8.17224 20.7934L8.18447 20.6374L8.21507 20.5548L8.23649 20.4631L8.20589 20.2795L8.15389 20.1816L8.16001 20.1174L8.10189 20.0868L8.05294 20.0165H8.10189L8.01011 19.9186L7.97647 19.8635L7.94283 19.7289L7.9 19.6249L7.75928 19.3894L7.692 19.2456L7.54212 19.059L7.37999 18.9214L7.276 18.8602L7.22704 18.8021L7.14141 18.799L7.04964 18.7164L6.9854 18.7134L6.90281 18.7012L6.80798 18.5451L6.72845 18.3983L6.59386 18.2056L6.62752 18.1567L6.66729 18.0741L6.64893 17.967L6.62752 17.8936L6.5694 17.7621L6.37363 17.4317L6.32163 17.3828L6.23904 17.3277L6.18704 17.184L6.16257 17.0555L6.02797 16.9912L5.7955 16.5232L5.66091 16.3611L5.60891 16.251L5.45291 16.0705L5.37643 15.8901L5.22043 15.7218L5.08584 15.4312L4.87784 15.1406L4.78914 15.0917L4.57501 15.0703L4.48325 15.0489L4.40065 15.1131L4.39453 15.0305L4.45265 14.9173L4.53525 14.6818L4.55054 14.4738L4.68207 13.8559L4.86561 13.8865L5.01549 13.914L5.23572 13.9538L5.46209 13.9936L5.59668 14.018L5.64255 14.0088L5.8261 13.8559L5.99127 13.7183L6.08916 13.55L6.18398 13.3879L6.22681 13.3542L6.37363 13.3237L6.6061 13.2747L6.83858 13.2258L6.85693 13.2105L6.91199 13.079L6.97928 12.9107L6.99457 12.8924L7.01294 12.874L7.17811 12.7792L7.27906 12.7211L7.13528 12.5528L7.00069 12.3938L6.84775 12.2163L6.71928 12.0787L6.52657 11.8707L6.40117 11.7331L6.6214 11.6688L6.86 11.5985L7.10164 11.5281L7.39224 11.4425L7.61859 11.3752L7.95812 11.2742L8.12329 11.2253L8.15389 11.213L8.28236 11.0938L8.47507 11.1274L8.7626 11.1763L9.04095 11.2253L9.33461 11.2803L9.42943 11.3262L9.71084 11.4945L9.89439 11.6046L10.1085 11.7331L10.3777 11.8921L10.5612 12.0022L10.7968 12.1429L10.9803 12.302L11.2128 12.5039L11.4697 12.7241L11.6808 12.8954L11.9713 13.131L12.2558 13.3634L12.5373 13.5898L12.7605 13.7703L13.045 13.9997L13.0664 14.0088L13.354 14.0333L13.7394 14.067L14.1278 14.1006L14.4766 14.1312L14.5867 14.1037ZM6.05551 17.3583L6.04633 17.3705L6.00962 17.3369L6.01268 17.2635L6.04326 17.2207L6.0402 17.2788L6.05245 17.3369L6.05551 17.3583ZM6.31857 17.6703H6.29716L6.23597 17.6061L6.19927 17.5602L6.16257 17.5296L5.99739 17.4654L5.97598 17.4256L6.00044 17.3858L6.01881 17.4256L6.04939 17.4501L6.18704 17.5082L6.33998 17.6336L6.3675 17.6428L6.31857 17.6703ZM10.6866 25.6081L10.7539 25.6142L10.7264 25.5867L10.7203 25.5714L10.7478 25.5316L10.8426 25.6173L10.8396 25.7182L10.8304 25.7396L10.8059 25.7182L10.7906 25.6968L10.7845 25.6754L10.757 25.6509L10.6652 25.6662L10.6071 25.6387L10.5245 25.553L10.5031 25.4918L10.5367 25.4796L10.5734 25.449L10.5949 25.4001L10.5734 25.3511L10.6224 25.3603L10.6499 25.4123L10.656 25.5285L10.6622 25.553L10.6499 25.5805L10.6866 25.6081Z" fill="white" stroke="white" stroke-width="0.1"/>
<path d="M11.0047 5.91813V5.93343L10.9956 5.97014L10.9007 6.0772L10.7692 6.22097L10.6744 6.31273L10.5153 6.46567L10.396 6.49933L10.1972 6.55438L10.1421 6.60638L10.0932 6.69203L10.0626 6.81133L10.0534 6.88474L10.0473 7.02239L10.0962 7.16309L10.1421 7.30075L10.1452 7.38945L10.1421 7.47816L10.0993 7.57298L10.0504 7.70146L10.0228 7.84828L10.0106 8.12052L10.0075 8.353L10.0045 8.3897L9.92189 8.55182L9.82706 8.74147L9.78119 8.78735L9.57013 8.84241L9.34071 8.98312L9.08376 9.13607L8.85128 9.27677L8.60658 9.4236L8.35269 9.57655L8.16916 9.6836L7.92752 9.83043L7.70421 9.96808L7.48092 10.1088L7.30962 10.2158L7.05267 10.3841L6.89973 10.482L6.67643 10.6257L6.48066 10.7542L6.2482 10.9041L5.95761 10.8582L5.86585 10.8337L5.78937 10.7603L5.7343 10.7236L5.59666 10.6839L5.50795 10.5493L5.45595 10.5003L5.36419 10.4789L5.37642 10.433L5.42231 10.3504L5.47124 10.2617L5.44372 10.2128L5.43454 10.17L5.43147 10.121L5.46512 10.0721L5.44983 10.014L5.42537 9.95584L5.40702 9.92525V9.87326L5.41925 9.83349L5.43454 9.76925L5.47124 9.7356L5.48349 9.6989L5.51713 9.66525L5.56606 9.63466L5.57525 9.61325L5.56913 9.59795L5.52019 9.57348L5.49572 9.5276L5.51713 9.46031L5.53242 9.43889L5.563 9.4083L5.62418 9.35936L5.67314 9.35018H5.71595L5.78937 9.35631L5.84443 9.36242L5.85972 9.35018L5.85666 9.33489L5.78937 9.29513L5.78325 9.26148L5.8016 9.22783L5.85054 9.17277L5.90866 9.13301L5.93926 9.12689L6.00348 9.04736L6.04937 8.95865L5.97902 8.73841L5.93619 8.70477L5.86889 8.67418L5.82912 8.66806L5.82608 8.65582L5.87808 8.60077L5.91784 8.55182L5.87501 8.50594L5.79854 8.48453L5.771 8.53041L5.67618 8.53652L5.5263 8.53347L5.45901 8.30406L5.44983 8.20311V8.08687L5.49572 7.91557L5.4743 7.83605V7.78098L5.46207 7.70757L5.34277 7.55157L5.40702 7.25792L5.45289 7.18757L5.51713 7.19369L5.65478 7.27627L5.67618 7.27322L5.71901 7.16616L5.75877 7.12639L5.84443 7.0958L5.86889 6.91839L5.90866 6.88474L5.95455 6.86638L6.02796 6.86332L6.0922 6.85109L6.09526 6.8205L6.00654 6.61556L6.01573 6.56356L6.05854 6.35556L6.08608 6.27296L6.11055 6.24543L6.21148 6.25767L6.35526 6.29438L6.39196 6.3525L6.46231 6.40755L6.56632 6.40449L6.68562 6.41368L6.77738 6.41673L6.85385 6.38003L7.02209 6.30967L7.10775 6.2852L7.18116 6.25461L7.42586 6.14143L7.52375 6.15061L7.59103 6.1659L7.64305 6.18426L7.75927 6.26073L7.85411 6.34026L7.9214 6.36474L8.0407 6.36167L8.21505 6.37696H8.42612L8.55152 6.3525L8.71059 6.31579L8.992 6.22097L9.36517 6.0252L9.58542 5.93037L9.68024 5.9212L9.80261 5.91813L9.92495 5.94261L10.0657 5.96096H10.1299L10.2798 5.93955L10.4755 5.89978L10.5979 5.86919L10.7478 5.81413L10.8395 5.72543L10.8701 5.71625L10.9099 5.73155L10.9283 5.73766L10.965 5.78967L11.0047 5.91813Z" fill="white" stroke="white" stroke-width="0.1"/>
<path d="M20.2121 25.6662L19.7777 25.8252L19.6645 25.8956L19.5605 25.9812L19.4841 26.0883L19.429 26.278L19.4688 26.4523L19.4657 26.5441L19.3525 26.6053L19.2485 26.6511L19.1323 26.7184L19.0619 26.7368L19.0038 26.7918L18.9365 26.8286L18.6949 26.9264L18.4318 27.0029L18.0127 27.0947L17.8506 27.1926L17.7038 27.2599L17.4805 27.2813L17.1746 27.3761L17.0033 27.4495L16.7923 27.5719L16.7464 27.6116L16.7097 27.7003L16.6454 27.7768L16.5169 27.9022L16.4221 27.9665L16.3579 27.9695L16.2325 28.0062L16.0857 28.0123L15.8379 27.9665L15.7736 27.997L15.7216 28.046L15.532 28.1316L15.3393 28.3029L15.1986 28.3488L14.9692 28.4039L14.8101 28.4742L14.703 28.5018L14.5654 28.517L14.3085 28.5109L14.0637 28.5354L13.8374 28.5843L13.7303 28.6761L13.611 28.8229L13.4153 28.8841L13.3694 28.9361L13.3082 29.0432L13.1797 29.0707L13.0635 29.0891L12.9442 29.0432L12.7209 29.1716L12.6383 29.1931L12.5098 29.1992L12.4181 29.2267L12.3538 29.2175L12.2743 29.1655L12.103 29.1044L11.9776 29.1441L11.9684 29.0218L11.7604 28.6455L11.8032 28.3182V28.2723L11.7604 28.1255L11.635 27.9909L11.6381 27.8227L11.5952 27.7003L11.5616 27.5749L11.5738 27.5413L11.5769 27.5107L11.5126 27.318L11.4912 27.2782L11.4821 27.2384L11.5035 27.2079V27.1711L11.4698 27.113L11.4331 26.9999L11.2618 26.9111L11.2955 26.8286L11.3291 26.8561L11.375 26.8806L11.3842 26.8286V26.7888L11.3138 26.538L11.4178 26.2045L11.3842 25.9017L11.5432 25.7794L11.583 25.7427L11.6075 25.709L11.6442 25.6387L11.6962 25.6172L11.7145 25.5438V25.5071L11.6809 25.4765L11.6564 25.3909L11.6656 25.2838L11.6748 25.2379L11.6931 25.1554L11.7482 25.1248L11.7604 25.1003L11.7176 25.0483L11.7206 25.0177L11.8155 24.9321L11.8522 24.9045L11.9134 24.877H11.9623L12.0174 24.8923L12.0663 24.9168L12.1153 24.9626L12.1672 25.0116L12.2468 25.0299L12.2988 25.0238L12.3416 25.0452L12.3783 25.033L12.4211 25.0085L12.4884 25.0116L12.5496 24.981L12.7209 24.9657L12.8861 24.9749L13.0574 24.9504L13.2287 24.9535L13.403 24.9565L13.4428 24.9596L13.4795 24.9749L13.6263 25.0514L13.7364 25.0666L13.9597 25.0881L14.1983 25.1095L14.4033 25.1278L14.5776 25.1095L14.7214 25.0942L14.7612 25.0972L14.804 25.1462L14.8896 25.2655L14.9722 25.3787L15.116 25.3848L15.2078 25.3419L15.3087 25.2838L15.3699 25.2379L15.4402 25.0544L15.4861 24.9351L15.5932 24.8036L15.6819 24.6935L15.8012 24.5466L15.8654 24.464L15.9939 24.3019L16.1162 24.2377L16.3548 24.1153L16.5873 23.996L16.7403 23.9196L16.8687 23.8829L17.0859 23.8523L17.3398 23.8156L17.5937 23.7789L17.8659 23.7391L18.1687 23.6963L18.3767 23.6657L18.6429 23.629L18.8631 23.5984L19.0589 23.5709L19.2608 23.5433L19.2975 23.632L19.3342 23.7207L19.3739 23.8095L19.4106 23.8982L19.4473 23.9869L19.4841 24.0756L19.5208 24.1643L19.5605 24.253L19.5972 24.3417L19.6339 24.4304L19.6706 24.5191L19.7104 24.6078L19.7471 24.6965L19.7838 24.7852L19.8205 24.8739L19.8572 24.9626L19.8939 25.0514L19.9551 25.0789L19.9918 25.1615L20.0438 25.2777L20.0958 25.3939L20.1478 25.5102L20.2121 25.6662ZM11.2037 26.8622L11.1762 26.8806L11.167 26.8469L11.1853 26.7704L11.2129 26.749L11.2312 26.8071L11.219 26.8377L11.2037 26.8622ZM11.3719 28.0368L11.3597 28.0552L11.3444 28.0521L11.2924 28.0062L11.3505 27.9542L11.3811 28.0032L11.3719 28.0368ZM11.3444 28.2693L11.2863 28.2968L11.3261 28.2265L11.3658 28.2112L11.3781 28.2142L11.3444 28.2693ZM20.7933 29.2053L20.8453 29.2145L20.9248 29.1839L21.1542 29.1808L21.4325 29.2787L21.3806 29.3032L21.35 29.3368L21.2276 29.3674L21.1052 29.4439L20.7535 29.4806L20.6495 29.4592L20.5638 29.3858L20.4078 29.2909L20.469 29.2298L20.4812 29.2022L20.5057 29.1747L20.5944 29.1288L20.6831 29.1349L20.7933 29.2053Z" fill="white" stroke="white" stroke-width="0.1"/>
<defs>
<linearGradient id="paint0_linear_544_5660" x1="0" y1="16" x2="32" y2="16" gradientUnits="userSpaceOnUse">
<stop stop-color="#27A6E1"/>
<stop offset="1" stop-color="#4381EB"/>
</linearGradient>
</defs>
</svg>
