<svg version="1.1" id="Layer_1" xmlns="http://www.w3.org/2000/svg" xmlns:xlink="http://www.w3.org/1999/xlink" x="0px" y="0px"
	 width="100%" viewBox="0 0 512 512" enable-background="new 0 0 512 512" xml:space="preserve">
<path fill="#000000" opacity="1.000000" stroke="none" 
	d="
M283.000000,513.000000 
	C188.689560,513.000000 94.879120,513.000000 1.034338,513.000000 
	C1.034338,342.397858 1.034338,171.795731 1.034338,1.096792 
	C171.560455,1.096792 342.121002,1.096792 512.840759,1.096792 
	C512.840759,171.666550 512.840759,342.333252 512.840759,513.000000 
	C436.462372,513.000000 359.981171,513.000000 283.000000,513.000000 
M476.084259,437.055847 
	C483.013885,439.126068 488.611115,445.569214 497.738434,443.416260 
	C496.698944,442.223175 496.019531,441.535156 495.445526,440.768280 
	C493.308960,437.913971 488.865692,434.218811 489.528320,432.315125 
	C491.568695,426.453156 486.355469,424.873657 484.665131,421.414215 
	C484.042480,420.139923 481.600403,419.754669 479.300934,418.626831 
	C479.768250,413.959717 475.055206,412.956909 470.797943,411.285706 
	C470.797943,401.573730 470.797943,391.971130 470.797943,381.859558 
	C465.054535,381.859558 459.656464,381.859558 454.104950,381.859558 
	C454.049652,371.033081 452.686249,360.635406 457.984497,350.938934 
	C459.843170,347.537384 461.025146,343.756531 462.394775,340.103394 
	C462.780396,339.074890 463.254272,337.575958 462.803497,336.820099 
	C460.156189,332.381042 457.471161,327.927307 454.344482,323.824829 
	C452.383606,321.251953 449.626221,319.286133 446.932434,316.773956 
	C450.616882,315.509033 448.417664,313.998260 447.543976,311.729309 
	C446.499084,309.015717 441.698181,308.376984 443.679749,303.877258 
	C444.429077,302.175629 435.713959,296.521881 434.029388,297.717468 
	C429.953674,300.610107 426.850952,298.611603 423.838989,296.265808 
	C415.584869,289.837189 407.370270,283.353149 399.281799,276.718201 
	C393.923676,272.322937 387.923065,270.518524 381.079193,270.990814 
	C379.503937,271.099548 377.891785,270.673187 375.945038,270.453369 
	C377.533173,268.331940 378.615570,266.886078 379.690033,265.450806 
	C377.866058,264.768250 376.250671,264.163757 374.372253,263.460815 
	C380.369629,262.053345 383.142456,257.709839 380.596161,254.239166 
	C377.302826,249.750183 374.090271,245.201965 370.617767,240.365662 
	C370.170135,240.452576 368.830841,240.712601 366.832855,241.100525 
	C368.095856,239.536530 368.914490,238.522781 369.654510,237.606400 
	C367.498505,233.858704 365.033417,231.027069 360.263306,235.057938 
	C357.237976,230.564789 354.553589,226.123550 351.398529,222.046539 
	C349.168945,219.165436 348.818054,214.033310 343.650665,214.793015 
	C344.995026,212.445465 345.774750,209.448593 347.710785,208.031250 
	C352.246674,204.710632 350.169739,200.098755 350.851654,196.067963 
	C350.998444,195.200195 349.825256,193.248322 349.301697,193.263153 
	C344.856293,193.389160 345.309204,189.880508 344.417358,187.090927 
	C350.105988,187.805252 347.136078,183.182373 348.146729,181.313507 
	C351.613922,181.845337 354.981445,182.361862 359.370850,183.035141 
	C358.512726,179.758865 358.269836,176.615509 356.890564,174.093704 
	C354.905914,170.464996 355.936859,168.601898 359.197876,166.836365 
	C364.550262,163.938538 366.891144,159.355164 365.488007,155.139679 
	C368.342773,151.432022 371.334503,152.724792 373.341431,154.448792 
	C376.214661,153.089554 378.432526,152.040359 379.410767,151.577576 
	C380.071411,149.112335 380.581696,147.780899 380.746887,146.407974 
	C380.875824,145.336395 380.730103,144.167465 380.420868,143.126633 
	C380.144135,142.195145 379.456543,141.390533 378.987152,140.510300 
	C378.248871,139.125916 377.854340,137.383774 376.768494,136.388565 
	C371.247223,131.328033 369.923615,124.969276 373.140564,117.535934 
	C379.594879,119.104546 384.550873,116.397392 389.148834,112.256897 
	C387.592560,109.476814 386.001709,108.076118 383.046143,109.919487 
	C382.298981,110.385490 380.561310,110.459091 380.073761,109.950699 
	C377.015320,106.761459 373.505676,107.753799 369.975525,108.487335 
	C368.279602,108.839729 366.563690,109.582062 364.899017,109.477417 
	C362.743500,109.341904 359.955444,109.220100 358.617981,107.899292 
	C353.450867,102.796516 348.996857,96.626694 339.737457,101.323311 
	C340.304657,99.058228 341.201141,97.552246 340.895782,96.352028 
	C339.243805,89.858826 337.403137,83.405296 335.299194,77.046730 
	C335.057281,76.315613 332.785553,76.216591 331.437042,75.901184 
	C329.752136,75.507103 327.090790,75.725266 326.541962,74.738548 
	C325.174225,72.279610 321.852905,69.450058 324.293915,66.565987 
	C327.934662,62.264378 325.323334,59.614330 322.481995,57.308887 
	C320.606171,55.786842 317.818298,55.388847 316.726166,54.975182 
	C316.858765,51.791672 316.377380,48.854630 317.220703,46.366592 
	C318.623566,42.227669 316.657898,40.934338 313.402100,39.646458 
	C312.411865,39.254765 311.971924,37.434769 311.316071,36.248959 
	C310.928955,35.549049 310.798340,34.421333 310.234283,34.151859 
	C306.705017,32.465847 303.241638,31.257717 299.937012,34.952747 
	C298.363403,36.712242 296.187714,37.963013 294.193268,39.308563 
	C291.903320,40.853443 289.511932,42.248016 286.626984,44.042278 
	C285.819275,42.697884 284.151764,40.532436 283.296997,38.083344 
	C283.075317,37.448177 285.814575,36.115971 286.433838,34.757504 
	C287.068939,33.364349 287.300873,31.354963 286.790070,29.949299 
	C284.921204,24.806505 273.950012,23.388348 270.127075,27.360712 
	C268.632843,28.913370 266.202545,30.470314 264.196716,30.472763 
	C254.187683,30.484985 244.875046,27.509850 235.716751,23.506325 
	C232.039062,21.898640 227.619568,20.892851 223.424347,23.859905 
	C222.129730,24.775511 218.923141,24.737139 217.753387,23.753872 
	C214.154160,20.728476 211.823853,22.149582 209.465286,25.047626 
	C207.648163,27.280373 205.336761,29.301840 204.197083,31.844013 
	C202.923416,34.685085 201.121338,34.846077 198.523712,35.141655 
	C195.995361,35.429344 193.288803,36.454090 191.247650,37.954151 
	C189.752869,39.052670 189.555023,41.778545 188.181381,43.202438 
	C181.243088,50.394535 174.128922,57.417892 167.021011,64.444366 
	C166.007538,65.446220 164.790192,66.629196 163.497574,66.891060 
	C159.030258,67.796127 154.462097,68.196213 149.983475,69.055244 
	C147.119522,69.604568 144.478210,69.921104 142.653976,73.398987 
	C137.029388,84.122169 136.564209,94.523659 141.072342,105.839516 
	C142.969391,110.601334 144.128494,117.226608 142.246719,121.527527 
	C139.889694,126.914604 137.702576,132.144821 137.031281,137.894058 
	C136.360703,143.637268 136.286407,149.450058 135.949265,155.232254 
	C135.654236,160.291870 136.219437,165.606079 134.821182,170.340134 
	C133.390167,175.185043 130.352097,179.682175 127.414154,183.912521 
	C125.299721,186.957092 122.531967,191.031113 119.464729,191.632599 
	C112.326340,193.032440 105.871010,195.224258 99.617851,198.980118 
	C75.043953,213.740051 50.261208,228.151749 25.609852,242.783463 
	C15.941811,248.521881 16.191730,248.572647 19.458050,259.024689 
	C23.393616,271.618225 26.973738,284.322876 30.785067,297.241577 
	C28.916388,297.763031 27.451593,298.171753 25.627958,298.680634 
	C26.923836,302.198608 27.473190,305.927887 29.560564,308.308685 
	C30.456463,309.330536 34.532295,307.362457 37.195503,307.142944 
	C38.167149,307.062805 39.942875,307.950836 40.110600,308.681976 
	C40.493176,310.349640 40.508938,312.345917 39.909706,313.917358 
	C39.427044,315.183105 37.824467,316.021820 36.052498,317.669556 
	C51.760975,320.606567 66.352577,323.168945 80.863991,326.124908 
	C87.185127,327.412537 93.867088,328.512543 99.454170,331.461639 
	C108.621109,336.300293 116.901993,342.785736 125.789268,348.194275 
	C136.449554,354.681824 147.324036,360.820618 158.161926,367.012085 
	C167.034790,372.080963 177.387299,374.424683 184.974014,381.912262 
	C188.235428,385.131073 191.952316,387.896362 195.524979,390.790283 
	C205.433899,398.816803 215.468033,406.691528 225.278061,414.836578 
	C234.636734,422.606873 243.725204,430.701630 253.022491,438.547089 
	C267.466827,450.735840 281.884460,462.960358 296.526184,474.908936 
	C302.423218,479.721283 307.225159,485.537567 316.702881,485.423859 
	C330.407684,485.259491 344.149658,487.621216 357.863800,489.022522 
	C366.166718,489.870941 374.428070,491.401855 382.744354,491.743500 
	C387.999084,491.959351 394.978241,492.408630 398.266724,489.478882 
	C405.090332,483.399628 410.782349,475.611786 415.422089,467.642883 
	C420.074066,459.652893 422.805084,450.554932 426.562164,442.023682 
	C427.239746,440.485138 428.596802,439.033020 430.000641,438.062286 
	C438.054810,432.493103 447.589111,432.604431 456.089844,434.587524 
	C462.553314,436.095367 468.325043,439.866913 476.084259,437.055847 
z"/>
<path fill="#579BD3" opacity="1.000000" stroke="none" 
	d="
M475.670929,437.032288 
	C468.325043,439.866913 462.553314,436.095367 456.089844,434.587524 
	C447.589111,432.604431 438.054810,432.493103 430.000641,438.062286 
	C428.596802,439.033020 427.239746,440.485138 426.562164,442.023682 
	C422.805084,450.554932 420.074066,459.652893 415.422089,467.642883 
	C410.782349,475.611786 405.090332,483.399628 398.266724,489.478882 
	C394.978241,492.408630 387.999084,491.959351 382.744354,491.743500 
	C374.428070,491.401855 366.166718,489.870941 357.863800,489.022522 
	C344.149658,487.621216 330.407684,485.259491 316.702881,485.423859 
	C307.225159,485.537567 302.423218,479.721283 296.526184,474.908936 
	C281.884460,462.960358 267.466827,450.735840 253.022491,438.547089 
	C243.725204,430.701630 234.636734,422.606873 225.278061,414.836578 
	C215.468033,406.691528 205.433899,398.816803 195.524979,390.790283 
	C191.952316,387.896362 188.235428,385.131073 184.974014,381.912262 
	C177.387299,374.424683 167.034790,372.080963 158.161926,367.012085 
	C147.324036,360.820618 136.449554,354.681824 125.789268,348.194275 
	C116.901993,342.785736 108.621109,336.300293 99.454170,331.461639 
	C93.867088,328.512543 87.185127,327.412537 80.863991,326.124908 
	C66.352577,323.168945 51.760975,320.606567 36.052498,317.669556 
	C37.824467,316.021820 39.427044,315.183105 39.909706,313.917358 
	C40.508938,312.345917 40.493176,310.349640 40.110600,308.681976 
	C39.942875,307.950836 38.167149,307.062805 37.195503,307.142944 
	C34.532295,307.362457 30.456463,309.330536 29.560564,308.308685 
	C27.473190,305.927887 26.923836,302.198608 25.627958,298.680634 
	C27.451593,298.171753 28.916388,297.763031 30.785067,297.241577 
	C26.973738,284.322876 23.393616,271.618225 19.458050,259.024689 
	C16.191730,248.572647 15.941811,248.521881 25.609852,242.783463 
	C50.261208,228.151749 75.043953,213.740051 99.617851,198.980118 
	C105.871010,195.224258 112.326340,193.032440 119.464729,191.632599 
	C122.531967,191.031113 125.299721,186.957092 127.414154,183.912521 
	C130.352097,179.682175 133.390167,175.185043 134.821182,170.340134 
	C136.219437,165.606079 135.654236,160.291870 135.949265,155.232254 
	C136.286407,149.450058 136.360703,143.637268 137.031281,137.894058 
	C137.702576,132.144821 139.889694,126.914604 142.246719,121.527527 
	C144.128494,117.226608 142.969391,110.601334 141.072342,105.839516 
	C136.564209,94.523659 137.029388,84.122169 142.653976,73.398987 
	C144.478210,69.921104 147.119522,69.604568 149.983475,69.055244 
	C154.462097,68.196213 159.030258,67.796127 163.497574,66.891060 
	C164.790192,66.629196 166.007538,65.446220 167.021011,64.444366 
	C174.128922,57.417892 181.243088,50.394535 188.181381,43.202438 
	C189.555023,41.778545 189.752869,39.052670 191.247650,37.954151 
	C193.288803,36.454090 195.995361,35.429344 198.523712,35.141655 
	C201.121338,34.846077 202.923416,34.685085 204.197083,31.844013 
	C205.336761,29.301840 207.648163,27.280373 209.465286,25.047626 
	C211.823853,22.149582 214.154160,20.728476 217.753387,23.753872 
	C218.923141,24.737139 222.129730,24.775511 223.424347,23.859905 
	C227.619568,20.892851 232.039062,21.898640 235.716751,23.506325 
	C244.875046,27.509850 254.187683,30.484985 264.196716,30.472763 
	C266.202545,30.470314 268.632843,28.913370 270.127075,27.360712 
	C273.950012,23.388348 284.921204,24.806505 286.790070,29.949299 
	C287.300873,31.354963 287.068939,33.364349 286.433838,34.757504 
	C285.814575,36.115971 283.075317,37.448177 283.296997,38.083344 
	C284.151764,40.532436 285.819275,42.697884 286.626984,44.042278 
	C289.511932,42.248016 291.903320,40.853443 294.193268,39.308563 
	C296.187714,37.963013 298.363403,36.712242 299.937012,34.952747 
	C303.241638,31.257717 306.705017,32.465847 310.234283,34.151859 
	C310.798340,34.421333 310.928955,35.549049 311.316071,36.248959 
	C311.971924,37.434769 312.411865,39.254765 313.402100,39.646458 
	C316.657898,40.934338 318.623566,42.227669 317.220703,46.366592 
	C316.377380,48.854630 316.858765,51.791672 316.726166,54.975182 
	C317.818298,55.388847 320.606171,55.786842 322.481995,57.308887 
	C325.323334,59.614330 327.934662,62.264378 324.293915,66.565987 
	C321.852905,69.450058 325.174225,72.279610 326.541962,74.738548 
	C327.090790,75.725266 329.752136,75.507103 331.437042,75.901184 
	C332.785553,76.216591 335.057281,76.315613 335.299194,77.046730 
	C337.403137,83.405296 339.243805,89.858826 340.895782,96.352028 
	C341.201141,97.552246 340.304657,99.058228 339.737457,101.323311 
	C348.996857,96.626694 353.450867,102.796516 358.617981,107.899292 
	C359.955444,109.220100 362.743500,109.341904 364.899017,109.477417 
	C366.563690,109.582062 368.279602,108.839729 369.975525,108.487335 
	C373.505676,107.753799 377.015320,106.761459 380.073761,109.950699 
	C380.561310,110.459091 382.298981,110.385490 383.046143,109.919487 
	C386.001709,108.076118 387.592560,109.476814 389.148834,112.256897 
	C384.550873,116.397392 379.594879,119.104546 373.140564,117.535934 
	C369.923615,124.969276 371.247223,131.328033 376.768494,136.388565 
	C377.854340,137.383774 378.248871,139.125916 378.987152,140.510300 
	C379.456543,141.390533 380.144135,142.195145 380.420868,143.126633 
	C380.730103,144.167465 380.875824,145.336395 380.746887,146.407974 
	C380.581696,147.780899 380.071411,149.112335 379.410767,151.577576 
	C378.432526,152.040359 376.214661,153.089554 373.341431,154.448792 
	C371.334503,152.724792 368.342773,151.432022 365.488007,155.139679 
	C366.891144,159.355164 364.550262,163.938538 359.197876,166.836365 
	C355.936859,168.601898 354.905914,170.464996 356.890564,174.093704 
	C358.269836,176.615509 358.512726,179.758865 359.370850,183.035141 
	C354.981445,182.361862 351.613922,181.845337 348.146729,181.313507 
	C347.136078,183.182373 350.105988,187.805252 344.417358,187.090927 
	C345.309204,189.880508 344.856293,193.389160 349.301697,193.263153 
	C349.825256,193.248322 350.998444,195.200195 350.851654,196.067963 
	C350.169739,200.098755 352.246674,204.710632 347.710785,208.031250 
	C345.774750,209.448593 344.995026,212.445465 343.650665,214.793015 
	C348.818054,214.033310 349.168945,219.165436 351.398529,222.046539 
	C354.553589,226.123550 357.237976,230.564789 360.263306,235.057938 
	C365.033417,231.027069 367.498505,233.858704 369.654510,237.606400 
	C368.914490,238.522781 368.095856,239.536530 366.832855,241.100525 
	C368.830841,240.712601 370.170135,240.452576 370.617767,240.365662 
	C374.090271,245.201965 377.302826,249.750183 380.596161,254.239166 
	C383.142456,257.709839 380.369629,262.053345 374.372253,263.460815 
	C376.250671,264.163757 377.866058,264.768250 379.690033,265.450806 
	C378.615570,266.886078 377.533173,268.331940 375.945038,270.453369 
	C377.891785,270.673187 379.503937,271.099548 381.079193,270.990814 
	C387.923065,270.518524 393.923676,272.322937 399.281799,276.718201 
	C407.370270,283.353149 415.584869,289.837189 423.838989,296.265808 
	C426.850952,298.611603 429.953674,300.610107 434.029388,297.717468 
	C435.713959,296.521881 444.429077,302.175629 443.679749,303.877258 
	C441.698181,308.376984 446.499084,309.015717 447.543976,311.729309 
	C448.417664,313.998260 450.616882,315.509033 446.932434,316.773956 
	C449.626221,319.286133 452.383606,321.251953 454.344482,323.824829 
	C457.471161,327.927307 460.156189,332.381042 462.803497,336.820099 
	C463.254272,337.575958 462.780396,339.074890 462.394775,340.103394 
	C461.025146,343.756531 459.843170,347.537384 457.984497,350.938934 
	C452.686249,360.635406 454.049652,371.033081 454.104950,381.859558 
	C459.656464,381.859558 465.054535,381.859558 470.797943,381.859558 
	C470.797943,391.971130 470.797943,401.573730 470.797943,411.285706 
	C475.055206,412.956909 479.768250,413.959717 479.300934,418.626831 
	C481.600403,419.754669 484.042480,420.139923 484.665131,421.414215 
	C486.355469,424.873657 491.568695,426.453156 489.528320,432.315125 
	C488.865692,434.218811 493.308960,437.913971 495.445526,440.768280 
	C496.019531,441.535156 496.698944,442.223175 497.738434,443.416260 
	C488.611115,445.569214 483.013885,439.126068 475.670929,437.032288 
M192.228775,193.738968 
	C191.460114,193.185638 190.691467,192.632324 189.922821,192.078995 
	C189.625198,192.559708 189.327576,193.040436 189.029968,193.521149 
	C189.980087,194.055145 190.930206,194.589142 191.945404,195.868988 
	C191.069870,197.399902 190.194321,198.930801 189.318787,200.461700 
	C189.451614,200.860641 189.584427,201.259567 189.717255,201.658493 
	C191.021088,201.063644 192.503464,200.694107 193.593964,199.830017 
	C196.415756,197.594116 194.629410,195.893448 192.228775,193.738968 
M237.752914,227.995071 
	C240.253143,228.600052 242.753372,229.205032 245.946564,229.977707 
	C246.252197,225.860611 246.553558,221.800903 246.897110,217.172913 
	C246.158997,216.073547 245.093048,212.746124 243.549362,212.507339 
	C238.579498,211.738586 236.355179,208.217407 234.023788,204.754608 
	C232.172012,202.004227 230.857315,198.892242 229.232285,195.804214 
	C224.177155,203.038391 228.196823,219.180984 237.752914,227.995071 
M265.093201,293.363434 
	C268.150726,290.356720 268.033783,288.364288 264.042938,285.796814 
	C261.038605,283.863983 258.932159,280.369354 256.792847,277.313141 
	C255.223724,275.071533 254.441132,272.284027 252.905991,270.011353 
	C252.365784,269.211670 250.451477,268.687714 249.493637,269.011475 
	C248.588562,269.317383 247.875961,270.823517 247.512451,271.942657 
	C247.049149,273.369080 247.453568,275.193970 246.735123,276.401611 
	C242.618393,283.321167 245.806473,290.833466 253.338577,291.835571 
	C254.733994,292.021240 255.985168,293.119781 257.366180,293.623505 
	C259.713074,294.479584 262.069702,296.408081 265.093201,293.363434 
M444.648376,406.865295 
	C445.337799,407.438782 446.216553,408.620758 446.682495,408.475830 
	C448.321716,407.965851 449.819183,407.000122 451.357605,406.213867 
	C446.599945,397.849518 446.599945,397.849518 442.396729,396.024017 
	C443.218506,394.992340 444.079895,393.910950 444.941284,392.829559 
	C443.692444,391.889893 441.540710,389.972870 441.335236,390.162689 
	C439.406189,391.944702 437.810028,394.086975 435.816498,396.487915 
	C433.579376,396.487915 430.357422,396.487915 427.135498,396.487915 
	C431.188263,399.019562 434.239502,403.180664 439.730469,402.120361 
	C442.417297,401.601562 444.770630,402.815277 444.648376,406.865295 
M409.546112,397.964081 
	C411.259277,397.964081 412.972443,397.964081 414.932007,397.964081 
	C414.067322,396.559967 413.496796,395.633514 413.108459,395.002960 
	C419.101471,395.002960 424.982666,395.002960 431.300934,395.002960 
	C428.454224,390.582123 420.016418,389.703644 413.065643,393.237976 
	C414.759216,391.201080 415.630219,390.153503 416.989655,388.518463 
	C412.631409,388.518463 408.804352,388.518463 405.297913,388.518463 
	C405.297913,390.009064 405.297913,391.778290 405.297913,393.803406 
	C406.673065,393.525879 408.014923,393.255066 410.125214,392.829163 
	C409.803406,394.605804 409.563019,395.933075 409.546112,397.964081 
M248.928604,257.568848 
	C249.892807,255.899979 250.856995,254.231094 251.821198,252.562225 
	C250.176758,252.127899 248.532318,251.693573 245.996353,251.023788 
	C245.265076,249.747787 243.977463,247.501053 243.050842,245.884201 
	C241.547333,247.847870 240.119965,249.712128 238.716797,251.544754 
	C241.488815,253.407379 244.854004,255.668579 248.928604,257.568848 
z"/>
<path fill="#000000" opacity="1.000000" stroke="none" 
	d="
M237.356049,227.973755 
	C228.196823,219.180984 224.177155,203.038391 229.232285,195.804214 
	C230.857315,198.892242 232.172012,202.004227 234.023788,204.754608 
	C236.355179,208.217407 238.579498,211.738586 243.549362,212.507339 
	C245.093048,212.746124 246.158997,216.073547 246.897110,217.172913 
	C246.553558,221.800903 246.252197,225.860611 245.946564,229.977707 
	C242.753372,229.205032 240.253143,228.600052 237.356049,227.973755 
z"/>
<path fill="#000000" opacity="1.000000" stroke="none" 
	d="
M264.824768,293.625183 
	C262.069702,296.408081 259.713074,294.479584 257.366180,293.623505 
	C255.985168,293.119781 254.733994,292.021240 253.338577,291.835571 
	C245.806473,290.833466 242.618393,283.321167 246.735123,276.401611 
	C247.453568,275.193970 247.049149,273.369080 247.512451,271.942657 
	C247.875961,270.823517 248.588562,269.317383 249.493637,269.011475 
	C250.451477,268.687714 252.365784,269.211670 252.905991,270.011353 
	C254.441132,272.284027 255.223724,275.071533 256.792847,277.313141 
	C258.932159,280.369354 261.038605,283.863983 264.042938,285.796814 
	C268.033783,288.364288 268.150726,290.356720 264.824768,293.625183 
z"/>
<path fill="#000000" opacity="1.000000" stroke="none" 
	d="
M444.787109,406.525452 
	C444.770630,402.815277 442.417297,401.601562 439.730469,402.120361 
	C434.239502,403.180664 431.188263,399.019562 427.135498,396.487915 
	C430.357422,396.487915 433.579376,396.487915 435.816498,396.487915 
	C437.810028,394.086975 439.406189,391.944702 441.335236,390.162689 
	C441.540710,389.972870 443.692444,391.889893 444.941284,392.829590 
	C444.079895,393.910950 443.218506,394.992340 442.396729,396.024017 
	C446.599945,397.849518 446.599945,397.849518 451.357605,406.213867 
	C449.819183,407.000122 448.321716,407.965851 446.682495,408.475830 
	C446.216553,408.620758 445.337799,407.438782 444.787109,406.525452 
z"/>
<path fill="#000000" opacity="1.000000" stroke="none" 
	d="
M409.434357,397.612213 
	C409.563019,395.933075 409.803406,394.605804 410.125214,392.829163 
	C408.014923,393.255066 406.673065,393.525879 405.297913,393.803406 
	C405.297913,391.778290 405.297913,390.009064 405.297913,388.518463 
	C408.804352,388.518463 412.631409,388.518463 416.989655,388.518463 
	C415.630219,390.153503 414.759216,391.201080 413.065643,393.237976 
	C420.016418,389.703644 428.454224,390.582123 431.300934,395.002960 
	C424.982666,395.002960 419.101471,395.002960 413.108459,395.002960 
	C413.496796,395.633514 414.067322,396.559967 414.932007,397.964081 
	C412.972443,397.964081 411.259277,397.964081 409.434357,397.612213 
z"/>
<path fill="#000000" opacity="1.000000" stroke="none" 
	d="
M248.573883,257.749329 
	C244.854004,255.668579 241.488815,253.407379 238.716797,251.544754 
	C240.119965,249.712128 241.547333,247.847870 243.050842,245.884201 
	C243.977463,247.501053 245.265076,249.747787 245.996353,251.023788 
	C248.532318,251.693573 250.176758,252.127899 251.821198,252.562225 
	C250.856995,254.231094 249.892807,255.899979 248.573883,257.749329 
z"/>
<path fill="#000000" opacity="1.000000" stroke="none" 
	d="
M192.685196,194.318375 
	C194.629410,195.893448 196.415756,197.594116 193.593964,199.830017 
	C192.503464,200.694107 191.021088,201.063644 189.717255,201.658493 
	C189.584427,201.259567 189.451614,200.860641 189.318787,200.461700 
	C190.194321,198.930801 191.069870,197.399902 192.114563,195.295349 
	C192.417542,194.587280 192.551361,194.452820 192.685196,194.318375 
z"/>
<path fill="#000000" opacity="1.000000" stroke="none" 
	d="
M192.082031,194.922424 
	C190.930206,194.589142 189.980087,194.055145 189.029968,193.521149 
	C189.327576,193.040436 189.625198,192.559708 189.922821,192.079010 
	C190.691467,192.632324 191.460114,193.185638 192.456985,194.028671 
	C192.551361,194.452820 192.417542,194.587280 192.082031,194.922424 
z"/>
</svg>